<svg width="43" height="52" viewBox="0 0 43 52" fill="none" xmlns="http://www.w3.org/2000/svg">
<path fill-rule="evenodd" clip-rule="evenodd" d="M41.7861 6.77156C41.9745 6.68229 42.1527 6.57295 42.3176 6.44544C42.3176 6.44544 42.1243 6.57226 41.7861 6.77156ZM27.0757 5.07148C15.6779 0.403047 8.39746 -2.80084 3.59465 3.56164C-0.395861 8.84609 -1.03603 17.1578 1.53523 28.0045C3.84529 37.755 8.66924 44.35 12.3804 47.9148C16.004 51.3874 20.7691 52.5953 23.9141 50.3864C25.4481 49.3068 26.3525 48.3103 27.7597 45.7179C28.541 44.2396 29.1402 42.672 29.5443 41.0495C29.5443 41.0495 24.7385 51.0734 19.2457 48.8765C13.7529 46.6797 7.53383 39.5986 4.9671 26.2183C3.17039 16.8558 4.28163 5.07148 9.63704 3.69903C14.9925 2.32659 22.1325 6.03929 27.0757 7.4057C32.019 8.7721 36.0019 9.19184 38.3361 8.36747C39.5327 7.94246 40.6875 7.40824 41.7861 6.77156C40.3925 7.47062 36.1046 8.77059 27.0757 5.07148Z" fill="#38BCEA"/>
</svg>
